<?xml version="1.0" encoding="utf-8"?>
<svg version="1.1" id="Layer_1" x="0px" y="0px" viewBox="0 0 600 496" style="enable-background:new 0 0 496 496;" preserveAspectRatio="none" xmlns="http://www.w3.org/2000/svg" xmlns:bx="https://boxy-svg.com">
  <path style="fill: rgb(255, 255, 255);" d="M 568.943 40 L 31.984 40 C 16.477 40 0 52.016 0 67.726 L 0 315.425 C 0 331.136 16.477 345 31.984 345 L 567.974 345 C 584.451 345 599.959 331.136 599.959 315.425 L 599.959 67.726 C 600.928 52.016 584.451 40 568.943 40 Z"/>
  <path style="fill: rgb(255, 255, 255);" d="M 300 296.809 C 292 296.327 284 295.364 276 294.4 L 276 370.522 C 276 378.712 286.4 384.975 300 384.975 C 313.6 384.975 324 378.712 324 370.522 L 324 294.4 C 316 295.364 308 296.327 300 296.809 Z"/>
  <path style="fill: rgb(255, 255, 255);" d="M 450 416 L 149.2 416 C 135.6 416 125.2 405.6 125.2 392 C 125.2 378.4 135.6 368 149.2 368 L 450.8 368 C 464.4 368 474.8 378.4 474.8 392 C 474 405.6 463.6 416 450 416 Z"/>
  <path style="fill: rgb(255, 255, 255);" d="M 125.2 392 C 125.2 378.4 135.6 368 149.2 368 L 450.8 368 C 464.4 368 474.8 378.4 474.8 392"/>
  <path style="fill: rgb(11, 11, 11);" d="M 580 305.117 C 580 317.422 564.507 329 549.927 329 L 45.073 329 C 30.493 329 15 316.698 15 305.117 L 15 75.711 C 15 63.409 30.493 54 45.073 54 L 549.016 54 C 564.507 54 580 63.409 580 75.711 L 580 305.117 Z"/>
  <g style="" transform="matrix(1, 0, 0, 1.035765, -1, 11.879807)">
    <path style="fill: rgb(255, 255, 255);" d="M 206.875 56.113 L 180.5 56.113 C 174.948 56.113 169.395 62.026 168.007 67.94 L 136.081 166.992 C 133.304 175.862 130.528 184.732 127.752 193.602 C 124.976 184.732 123.587 177.34 120.811 168.47 L 91.661 67.94 C 90.273 62.026 84.72 56.113 77.78 56.113 L 51.405 56.113 C 47.241 56.113 43.077 60.548 40.3 64.983 C 37.524 69.418 37.524 75.332 38.912 79.766 L 99.989 280.827 C 101.378 286.74 106.93 292.653 113.871 292.653 L 140.245 292.653 C 145.797 292.653 151.35 286.74 152.738 280.827 L 219.368 81.245 C 220.756 76.81 220.756 69.418 217.98 64.983 C 215.203 60.548 211.039 56.113 206.875 56.113 Z" bx:origin="0.5 0.466667"/>
    <path style="fill: rgb(255, 255, 255);" d="M 305.858 51.286 C 290.575 51.286 272.745 52.783 258.736 55.777 C 252.368 57.275 246 63.263 246 70.748 L 246 269.862 C 246 278.844 257.463 287.826 263.83 287.826 L 285.481 287.826 C 293.122 287.826 295.67 277.346 295.67 269.862 L 295.67 205.486 C 321.142 206.985 349.16 196.505 363.17 178.539 C 374.632 165.065 381 147.101 381 124.643 C 381 102.187 374.632 84.222 361.896 70.748 C 349.16 58.771 330.056 51.286 305.858 51.286 Z M 333.878 126.141 C 333.878 144.107 322.415 154.585 302.038 154.585 C 299.491 154.585 295.67 154.585 295.67 154.585 L 295.67 102.187 C 295.67 102.187 302.038 102.187 304.585 102.187 C 332.604 102.187 333.878 120.152 333.878 126.141 Z"/>
    <path style="fill: rgb(255, 255, 255); pointer-events: none;" d="M 539.872 56.113 L 514.497 56.113 C 507.248 56.113 503.622 66.397 503.622 75.213 L 503.622 157.488 C 503.622 158.957 503.622 158.957 503.622 160.426 L 454.08 64.928 C 451.664 60.52 446.831 56.113 443.206 56.113 L 420.247 56.113 C 412.997 56.113 406.956 66.397 406.956 75.213 L 406.956 273.555 C 406.956 282.369 412.997 291.185 420.247 291.185 L 439.581 291.185 C 446.831 291.185 455.29 280.901 455.29 273.555 L 455.29 170.71 C 456.497 173.65 457.705 176.588 460.122 180.996 L 510.873 283.839 C 513.289 288.246 516.915 292.653 520.54 292.653 L 542.29 292.653 C 549.539 292.653 551.956 282.369 551.956 275.023 L 551.956 75.213 C 551.956 66.397 547.122 56.113 539.872 56.113 Z"/>
  </g>
</svg>