<?xml version="1.0" encoding="utf-8"?>
<!-- Svg Vector Icons : http://www.onlinewebfonts.com/icon -->
<!DOCTYPE svg PUBLIC "-//W3C//DTD SVG 1.1//EN" "http://www.w3.org/Graphics/SVG/1.1/DTD/svg11.dtd">
<svg version="1.1" xmlns="http://www.w3.org/2000/svg" xmlns:xlink="http://www.w3.org/1999/xlink" x="0px" y="0px" viewBox="0 0 1000 1000" enable-background="new 0 0 1000 1000" xml:space="preserve">
<metadata> Svg Vector Icons : http://www.onlinewebfonts.com/icon </metadata>
<g><g><path d="M286.3,652.8c67.6-24.9,109.1-75.9,144.4-133.1l-122-268.5c-5.3-11.6-5.7-24.6-1.2-36.6c4.5-12,13.4-21.4,25-26.7c6.3-2.8,12.9-4.3,19.8-4.3c14.5,0,28,6.6,37,17.5c51.5-4.4,95.1-29.1,137.3-61c-34.6-34.6-69.3-69.3-103.9-103.9c-4.1-4.1-12.6-6-18.7-3.9C219.8,94.2,224.6,345.1,44.8,411.2l-6.6-6.6c-6.4-6.4-16.9-6.4-23.3,0c-6.4,6.4-6.4,16.9,0,23.3l562.7,562.7c3.2,3.2,7.4,4.8,11.7,4.8s8.4-1.6,11.7-4.8c6.4-6.4,6.4-16.9,0-23.3L286.3,652.8z"/><path d="M856.6,14.8c-2.4-5.2-9.7-10-16.1-10.2c-2.8-0.1-5.5-0.1-8.2-0.1c-118.4,0-195.6,90.9-283.4,158c-51.5,39.4-106.8,70.6-176.2,70.6c-0.5,0-1,0-1.5,0l-3.9-8.5c-2.8-6.1-8.8-9.7-15-9.7c-2.3,0-4.6,0.5-6.8,1.5c-8.3,3.8-12,13.6-8.2,21.9l112.9,248.5l216.3,476.1c1.9,4.1,5.3,7.1,9.2,8.6c1.8,0.7,3.8,1.1,5.8,1.1c2.3,0,4.6-0.5,6.8-1.5c8.3-3.8,12-13.6,8.2-21.9l-184-405.1c0.5,0,1,0,1.5,0c187.8,0,271.8-228.6,459.6-228.7c2.7,0,5.5,0,8.2,0.1c0.2,0,0.4,0,0.5,0c6.1,0,9.3-3.7,6.9-8.8C945,209.5,900.8,112.1,856.6,14.8z"/></g><g></g><g></g><g></g><g></g><g></g><g></g><g></g><g></g><g></g><g></g><g></g><g></g><g></g><g></g><g></g></g>
</svg>