<?xml version="1.0" encoding="utf-8"?>
<svg viewBox="0 0 640 384" xmlns="http://www.w3.org/2000/svg" xmlns:bx="https://boxy-svg.com">
  <path fill="#00008B" d="M 0.031 0.03 L 640.031 0.03 L 640.031 384.03 L 0.031 384.03 L 0.031 0.03 Z" style="pointer-events: none;" bx:origin="-0.000048 -0.000078"/>
  <path fill="#fff" d="M 195.901 315.375 L 141.78 320.236 L 147.216 361.553 L 108.454 332.385 L 69.459 361.374 L 75.25 320.054 L 21.129 314.834 L 67.095 292.51 L 38.735 257.039 L 90.256 270.54 L 108.928 231.473 L 127.246 270.632 L 178.882 257.4 L 150.17 292.689 L 196.019 315.282 L 195.901 315.375 Z M 459.066 322.573 L 434.841 324.914 L 437.443 343.369 L 419.951 330.407 L 402.579 343.46 L 404.944 325.005 L 380.721 322.845 L 401.164 312.762 L 388.281 297.009 L 411.442 302.861 L 419.597 285.307 L 427.988 302.769 L 451.033 296.739 L 438.385 312.582 L 459.066 322.573 Z M 447.605 217.07 L 450.796 205.367 L 439.214 197.267 L 454.811 195.915 L 461.311 185.022 L 467.812 195.915 L 483.41 197.267 L 471.829 205.367 L 475.019 217.07 L 461.311 211.13 L 447.605 217.07 Z M 348.22 163.058 L 324.234 165.037 L 326.361 183.311 L 309.344 170.259 L 291.855 182.953 L 294.692 164.678 L 270.823 162.249 L 291.265 152.523 L 278.854 136.771 L 301.665 142.893 L 310.173 125.697 L 318.088 143.073 L 341.014 137.401 L 328.133 152.972 L 348.22 163.058 Z M 555.964 133.528 L 531.269 135.962 L 533.984 154.776 L 516.142 141.54 L 498.418 154.866 L 500.898 135.962 L 476.201 133.8 L 497.116 123.449 L 484.001 107.334 L 507.633 113.365 L 515.907 95.54 L 524.413 113.365 L 547.93 107.153 L 534.93 123.357 L 555.964 133.528 Z M 458.946 58.36 L 434.489 60.433 L 436.733 79.156 L 419.361 65.832 L 401.519 78.796 L 404.351 60.163 L 379.893 57.643 L 400.807 47.74 L 388.166 31.626 L 411.442 37.839 L 420.07 20.282 L 428.108 38.019 L 451.504 32.165 L 438.385 48.01 L 458.946 58.36 Z" style="pointer-events: none;"/>
  <g style="pointer-events: none;" transform="matrix(0.859726, 0, 0, 0.816895, -205.060104, 4.901369)">
    <g style="pointer-events: none;">
      <path fill="#fff" d="M 494.518 -6 L 494.518 26 L 399.518 122 L 494.518 215.5 L 494.518 250 L 461.018 250 L 365.518 156 L 272.518 250 L 238.518 250 L 238.518 216 L 331.518 122.5 L 238.518 31 L 238.518 -6 L 269.518 -6 L 365.518 88 L 458.518 -6 L 494.518 -6 Z" style=""/>
      <path fill="red" d="M 330.518 156 L 336.018 173 L 259.518 250 L 238.518 250 L 238.518 248.5 L 330.518 156 Z M 392.518 150 L 419.518 154 L 494.518 227.5 L 494.518 250 L 392.518 150 Z M 494.518 -6 L 398.518 92 L 396.518 70 L 471.518 -6 L 494.518 -6 Z M 238.518 -5.5 L 335.018 89 L 305.518 85 L 238.518 18.5 L 238.518 -5.5 Z" style=""/>
      <path fill="#fff" d="M 326.518 -6 L 326.518 250 L 406.518 250 L 406.518 -6 L 326.518 -6 Z M 238.518 82 L 238.518 162 L 494.518 162 L 494.518 82 L 238.518 82 Z" style=""/>
      <path fill="red" d="M 238.518 98 L 238.518 146 L 494.518 146 L 494.518 98 L 238.518 98 Z M 342.518 -6 L 342.518 250 L 390.518 250 L 390.518 -6 L 342.518 -6 Z" style=""/>
    </g>
  </g>
</svg>