<?xml version="1.0" encoding="utf-8"?>
<svg id="flag-icons-hk" viewBox="0 0 640 384" xmlns="http://www.w3.org/2000/svg" xmlns:bx="https://boxy-svg.com">
  <defs>
    <clipPath id="a">
      <path fill-opacity=".7" d="M164.8 0H909v744H165z"/>
    </clipPath>
  </defs>
  <g clip-path="url(#a)" transform="matrix(0.859984, 0, 0, 0.691269, -141.725342, 0)" bx:origin="-0.003762 0">
    <path fill="#ba0000" fill-rule="evenodd" d="M 1076.286 548.572 L 162 548.572 L 162 0 L 1076.286 0 L 1076.286 548.572 Z" style="pointer-events: none;"/>
    <g style="pointer-events: none;" transform="matrix(0.760152, 0, 0, 0.831983, 132.879135, -17.021534)">
      <path fill="#fff" fill-rule="evenodd" d="M 516.4 360.1 C 516.4 360.1 441.4 327.8 452.1 244.1 C 462.5 203.8 480.9 176.4 514.3 161.5 C 529.945 156.955 546.041 154.138 562.3 153.1 C 557.9 157.1 554.3 161.2 552.5 166.3 C 548.9 175.5 551.5 184.3 556.3 193.1 C 562.537 203.566 566.236 215.347 567.1 227.5 C 569.334 246.454 561.244 265.152 545.9 276.5 C 536.3 283.8 524.9 286.4 515.7 294.8 C 508.183 301.662 503.479 311.069 502.5 321.2 C 502.2 344.6 508.6 347.9 516.4 360.2 L 516.4 360.1 Z"/>
      <path fill="#ba0000" fill-rule="evenodd" stroke="#000" stroke-width="3.1" d="M 502.1 239 L 502.1 238.7"/>
      <path fill="none" stroke="#ba0000" stroke-width="3.1" d="M 506.9 351.4 C 477.7 325.6 480.2 260.7 502.5 239"/>
      <path fill="#ba0000" fill-rule="evenodd" d="M 501.9 223 L 511.5 220.9 L 512.6 211.5 L 517.4 219.5 L 527 217.4 L 520.4 224.5 L 525.2 232.5 L 516.2 228.9 L 509.6 236 L 510.8 226.7"/>
      <path fill="#fff" fill-rule="evenodd" d="M 522.8 354.6 C 522.8 354.6 531.7 273.4 614.8 259.2 C 656.4 257.3 688 266.9 712.1 294.4 C 720.992 308.023 728.369 322.575 734.1 337.8 C 729 334.8 724.1 332.6 718.6 332.3 C 708.8 331.6 701.2 336.7 694.2 343.8 C 686.2 352.6 677.2 359.1 664.4 364.2 C 646.949 371.848 626.742 369.598 611.4 358.3 C 601.5 351.3 595.8 341.2 585 334.8 C 576.244 329.612 565.872 327.865 555.9 329.9 C 533.4 336.6 532.2 343.6 522.7 354.6 L 522.8 354.6 Z"/>
      <path fill="#ba0000" fill-rule="evenodd" stroke="#000" stroke-width="3.1" d="M 634.4 305.5 L 634.7 305.4"/>
      <path fill="none" stroke="#ba0000" stroke-width="3.1" d="M 528.3 343 C 544.4 307.5 607.3 291 634.5 305.8"/>
      <path fill="#ba0000" fill-rule="evenodd" d="M 649.6 300.6 L 654.4 309.2 L 663.7 307.5 L 657.5 314.5 L 662.4 323 L 653.6 318.7 L 647.3 325.7 L 648.2 316.1 L 639.4 311.8 L 648.7 310.2"/>
      <path fill="#fff" fill-rule="evenodd" d="M 528.4 360.5 C 528.4 360.5 608.2 343.1 648.1 417.5 C 663.1 456.3 664.1 489.3 645.6 520.9 C 635.6 533.9 623.9 544.9 611.4 555.5 C 612.6 549.7 613.1 544.3 611.7 539.1 C 609.3 529.6 602 524 593 519.6 C 581.858 514.728 572.024 507.293 564.3 497.9 C 551.458 483.779 547.148 463.868 553 445.7 C 556.5 434.1 564.3 425.4 566.9 413.2 C 569.051 403.233 567.411 392.823 562.3 384 C 548.9 364.9 541.8 366 528.3 360.5 L 528.4 360.5 Z"/>
      <path fill="#ba0000" fill-rule="evenodd" stroke="#000" stroke-width="3.1" d="M 610.4 450.7 L 610.6 451"/>
      <path fill="none" stroke="#ba0000" stroke-width="3.1" d="M 541.1 362 C 579.9 366 615.6 420.4 610.1 450.9"/>
      <path fill="#ba0000" fill-rule="evenodd" d="M 619.8 463.6 L 613.3 470.9 L 617.8 479.2 L 609.2 475.4 L 602.7 482.8 L 604 473.1 L 595.4 469.4 L 604.7 467.2 L 606 457.5 L 610.5 465.8"/>
      <path fill="#fff" fill-rule="evenodd" d="M 526.6 368.7 C 526.6 368.7 565.6 440.4 505.5 499.7 C 472.4 524.9 441 535.1 405.5 526.2 C 390.2 520.4 376.4 512.2 362.7 503.2 C 368.5 502.7 373.9 501.7 378.5 498.8 C 386.9 493.8 390.3 485.3 392 475.4 C 393.517 463.323 397.869 451.775 404.7 441.7 C 414.671 425.41 432.61 415.716 451.7 416.3 C 463.7 416.4 474.3 421.4 486.7 420.5 C 496.891 419.786 506.448 415.292 513.5 407.9 C 528.1 389.6 525.1 383.1 526.5 368.7 L 526.6 368.7 Z"/>
      <path fill="#ba0000" fill-rule="evenodd" stroke="#000" stroke-width="3.1" d="M 463 472.7 L 462.8 473"/>
      <path fill="none" stroke="#ba0000" stroke-width="3.1" d="M 528.7 381.4 C 535.7 419.7 493.6 469.2 462.7 472.5"/>
      <path fill="#ba0000" fill-rule="evenodd" d="M 453.3 485.4 L 444.4 481.2 L 437.7 487.9 L 438.9 478.6 L 430 474.4 L 439.7 472.9 L 440.8 463.6 L 445.6 472 L 455.2 470.5 L 448.5 477.1"/>
      <path fill="#fff" fill-rule="evenodd" d="M 517.7 367.1 C 517.7 367.1 463 427.8 387.2 390.7 C 352.4 367.9 332.3 341.7 328.9 305.3 C 329.3 289 332.5 273.2 336.4 257.3 C 338.9 262.6 341.5 267.3 345.8 270.7 C 353.3 277 362.5 277.4 372.3 275.7 C 384.195 273.125 396.531 273.399 408.3 276.5 C 426.955 280.487 442.058 294.14 447.9 312.3 C 451.9 323.8 450.6 335.3 455.6 346.8 C 459.681 356.143 467.097 363.63 476.4 367.8 C 498.4 375.5 503.6 370.6 517.7 367.1 L 517.7 367.1 Z"/>
      <path fill="#ba0000" fill-rule="evenodd" stroke="#000" stroke-width="3.1" d="M 398.4 341.7 L 398.1 341.7"/>
      <path fill="none" stroke="#ba0000" stroke-width="3.1" d="M 506.4 373.4 C 472.6 392.7 411.9 369.4 398.6 341.4"/>
      <path fill="#ba0000" fill-rule="evenodd" d="M 383.2 336.8 L 384.2 327 L 375.8 323 L 384.9 321 L 385.9 311.2 L 390.6 319.8 L 399.6 317.8 L 393.4 325.1 L 398 333.7 L 389.5 329.6"/>
    </g>
  </g>
</svg>