<?xml version="1.0" encoding="utf-8"?>
<svg id="flag-icons-sg" viewBox="0 0 640 384" xmlns="http://www.w3.org/2000/svg" xmlns:bx="https://boxy-svg.com">
  <defs>
    <clipPath id="a">
      <path fill-opacity=".7" d="M27.7 0h708.6v708.7H27.7z"/>
    </clipPath>
  </defs>
  <g fill-rule="evenodd" clip-path="url(#a)" transform="matrix(0.903189, 0, 0, 0.72249, -25.005375, 0)">
    <g transform="matrix(0.833326, 0, 0, 0.749958, 27.682045, 0)" bx:origin="0 0">
      <path fill="#fff" d="M 0 0 L 1063 0 L 1063 708.7 L 0 708.7 L 0 0 Z"/>
      <path fill="#df0000" d="M 0 0 L 1063 0 L 1063 354.3 L 0 354.3 L 0 0 Z"/>
    </g>
    <g style="pointer-events: none;" transform="matrix(0.627838, 0, 0, 0.804198, 5.069265, -14.820179)">
      <g>
        <path fill="#fff" d="M 245.2 59.4 C 151.412 79.495 114.548 193.584 178.845 264.759 C 196.648 284.467 220.282 297.97 246.3 303.3 C 152.545 330.738 64.246 246.393 87.362 151.48 C 104.379 81.607 176.001 39.825 245.2 59.4 L 245.2 59.4 Z"/>
        <path fill="#fff" d="M 202 162.4 L 183.1 148.6 L 206.6 148.4 L 213.8 126.1 L 221.3 148.4 L 244.7 148.4 L 225.9 162.4 L 233.1 184.7 L 214 171 L 195 184.8 L 202 162.4 Z M 228 239.3 L 209 225.5 L 232.5 225.3 L 239.8 203 L 247.2 225.2 L 270.7 225.2 L 251.7 239.2 L 259 261.5 L 240 247.9 L 221 261.7 L 228 239.3 Z M 314.3 238.7 L 295.3 224.9 L 318.7 224.7 L 326 202.4 L 333.4 224.7 L 357 224.7 L 338.1 238.7 L 345.4 261 L 326.3 247.3 L 307.3 261.1 L 314.3 238.7 Z M 340 162.5 L 321 148.7 L 344.5 148.5 L 351.7 126.2 L 359.2 148.4 L 382.6 148.4 L 363.8 162.4 L 371 184.7 L 351.9 171.1 L 332.9 184.9 L 340 162.5 Z M 271.7 112 L 252.7 98.2 L 276.2 98 L 283.5 75.7 L 290.9 98 L 314.4 98 L 295.4 112 L 302.7 134.2 L 283.7 120.6 L 264.7 134.4 L 271.7 112 Z"/>
      </g>
    </g>
  </g>
</svg>