<?xml version="1.0" encoding="utf-8"?>
<svg id="flag-icons-sk" viewBox="0 0 640 384" xmlns="http://www.w3.org/2000/svg">
  <path fill="#ee1c25" d="M 0 0 L 634.667 0 L 634.667 372.008 L 0 372.008 L 0 0 Z" style=""/>
  <path fill="#0b4ea2" d="M 0 0 L 634.667 0 L 634.667 247.981 L 0 247.981 L 0 0 Z" style=""/>
  <path fill="#fff" d="M 0 0 L 634.667 0 L 634.667 124.027 L 0 124.027 L 0 0 Z" style=""/>
  <g style="pointer-events: none;" transform="matrix(0.975311, 0, 0, 0.878224, 1.499886, -56.819469)">
    <path fill="#fff" d="M 203.2 395.5 C 157.3 373.5 91.7 329.5 91.7 242.7 C 91.7 155.9 95.8 116.5 95.8 116.5 L 310.6 116.5 C 310.6 116.5 314.8 155.9 314.8 242.7 C 314.8 329.5 249 373.4 203.2 395.5 Z" style=""/>
    <path fill="#ee1c25" d="M 203.2 384 C 161.1 363.7 100.9 323.5 100.9 243.8 C 100.9 164.1 104.7 128 104.7 128 L 301.7 128 C 301.7 128 305.5 164.2 305.5 243.8 C 305.5 323.4 245.3 363.8 203.2 384 Z" style=""/>
    <path fill="#fff" d="M 212.2 223 C 223.6 223.2 245.9 223.6 265.7 217 C 265.7 217 265.1 224 265.1 232.3 C 265.1 240.6 265.7 247.6 265.7 247.6 C 248.292 242.804 230.238 240.779 212.2 241.6 L 212.2 285.6 L 194.2 285.6 L 194.2 241.6 C 176.162 240.779 158.108 242.804 140.7 247.6 C 140.7 247.6 141.3 240.6 141.3 232.3 C 141.3 224 140.7 217 140.7 217 C 160.6 223.6 182.8 223.2 194.2 223 L 194.2 195.3 C 179.858 194.948 165.559 197.01 151.9 201.4 C 151.9 201.4 152.4 194.4 152.4 186.1 C 152.4 177.8 151.9 170.7 151.9 170.7 C 168.9 176.4 183.8 176.9 194.1 176.7 C 193.6 159.3 188.5 137.3 188.5 137.3 C 188.5 137.3 199 138.1 203.2 138.1 C 207.4 138.1 217.9 137.3 217.9 137.3 C 217.9 137.3 212.8 159.3 212.2 176.8 C 226.539 177.222 240.844 175.193 254.5 170.8 C 254.5 170.8 254 177.8 254 186.1 C 254 194.4 254.5 201.4 254.5 201.4 C 237.5 195.7 222.6 195.3 212.2 195.4 L 212.2 223 L 212.2 223 Z"/>
    <path fill="#0b4ea2" d="M 203.2 280.8 C 182 280.8 170.6 310.2 170.6 310.2 C 170.6 310.2 164.3 296.2 147 296.2 C 135.3 296.2 126.7 306.7 121.2 316.4 C 142.5 350.2 176.5 371.1 203.2 384 C 229.9 371.1 263.9 350.2 285.2 316.3 C 279.7 306.7 271.1 296.3 259.4 296.3 C 242.1 296.3 235.8 310.3 235.8 310.3 C 235.8 310.3 224.4 280.8 203.2 280.8 Z"/>
  </g>
</svg>