<?xml version="1.0" encoding="utf-8"?>
<svg id="flag-icons-us" viewBox="0 0 640 384" xmlns="http://www.w3.org/2000/svg">
  <g fill-rule="evenodd">
    <g stroke-width="1pt" transform="matrix(0.657895, 0, 0, 0.75, 0, 0)" style="pointer-events: none;">
      <g>
        <path fill="#bd3d44" d="M 0 0 L 972.8 0 L 972.8 39.4 L 0 39.4 L 0 0 Z M 0 78.8 L 972.8 78.8 L 972.8 118.2 L 0 118.2 L 0 78.8 Z M 0 157.5 L 972.8 157.5 L 972.8 197 L 0 197 L 0 157.5 Z M 0 236.3 L 972.8 236.3 L 972.8 275.7 L 0 275.7 L 0 236.3 Z M 0 315.1 L 972.8 315.1 L 972.8 354.5 L 0 354.5 L 0 315.1 Z M 0 393.8 L 972.8 393.8 L 972.8 433.2 L 0 433.2 L 0 393.8 Z M 0 472.6 L 972.8 472.6 L 972.8 512 L 0 512 L 0 472.6 Z"/>
        <path fill="#fff" d="M 0 39.4 L 972.8 39.4 L 972.8 78.8 L 0 78.8 L 0 39.4 Z M 0 118.2 L 972.8 118.2 L 972.8 157.5 L 0 157.5 L 0 118.2 Z M 0 196.9 L 972.8 196.9 L 972.8 236.3 L 0 236.3 L 0 196.9 Z M 0 275.7 L 972.8 275.7 L 972.8 315 L 0 315 L 0 275.7 Z M 0 354.5 L 972.8 354.5 L 972.8 393.8 L 0 393.8 L 0 354.5 Z M 0 433.2 L 972.8 433.2 L 972.8 472.6 L 0 472.6 L 0 433.2 Z"/>
      </g>
    </g>
    <g style="pointer-events: none;" transform="matrix(0.699892, 0, 0, 0.75361, 0, 0)">
      <path fill="#192f5d" d="M 0 0 L 389.1 0 L 389.1 275.7 L 0 275.7 L 0 0 Z" style=""/>
      <path fill="#fff" d="M 32.3 11.8 L 36.3 22.8 L 47.3 22.8 L 38.2 29.5 L 41.7 40.2 L 32.3 33.5 L 23.6 40.2 L 27.2 29.5 L 17.7 22.8 L 29.5 22.8 L 32.3 11.8 Z M 97.3 11.8 L 100.8 22.8 L 112.2 22.8 L 102.8 29.5 L 106.8 40.2 L 97.3 33.5 L 87.8 40.2 L 91.8 29.5 L 82.3 22.8 L 93.7 22.8 L 97.3 11.8 Z M 162.3 11.8 L 165.8 22.8 L 177.2 22.8 L 167.8 29.5 L 171.8 40.2 L 162.3 33.5 L 152.8 40.2 L 156.8 29.5 L 147.3 22.8 L 158.7 22.8 L 162.3 11.8 Z M 226.9 11.8 L 230.8 22.8 L 241.8 22.8 L 232.8 29.5 L 236.3 40.2 L 226.9 33.5 L 217.8 40.2 L 221.3 29.5 L 211.9 22.8 L 223.7 22.8 L 226.9 11.8 Z M 291.9 11.8 L 295.4 22.8 L 306.8 22.8 L 297.4 29.5 L 301.3 40.2 L 291.4 33.5 L 282.4 40.2 L 285.9 29.5 L 276.5 22.8 L 287.9 22.8 L 291.9 11.8 Z M 356.9 11.8 L 360.4 22.8 L 371.8 22.8 L 362.3 29.5 L 366.3 40.2 L 356.8 33.5 L 347.4 40.2 L 351.4 29.5 L 341.9 22.8 L 353.3 22.8 L 356.9 11.8 Z M 64.9 39.4 L 68.5 50.4 L 80 50.4 L 70.5 57.1 L 74.5 67.7 L 65 61 L 55.5 67.7 L 59.5 57.1 L 50 50.4 L 61.4 50.4 L 64.9 39.4 Z M 129.6 39.4 L 133.6 50.4 L 144.6 50.4 L 135.5 57.1 L 139 67.7 L 129.6 61 L 120.6 67.7 L 124.1 57.1 L 114.6 50.4 L 126.4 50.4 L 129.6 39.4 Z M 194.6 39.4 L 198.1 50.4 L 209.5 50.4 L 200.1 57.1 L 204.1 67.7 L 194.6 61 L 185.1 67.7 L 189.1 57.1 L 179.6 50.4 L 191 50.4 L 194.6 39.4 Z M 259.6 39.4 L 263.1 50.4 L 274.5 50.4 L 265.1 57.1 L 269 67.7 L 259.5 61 L 250.1 67.7 L 254.1 57.1 L 244.6 50.4 L 256 50.4 L 259.6 39.4 Z M 324.1 39.4 L 328.1 50.4 L 338.7 50.4 L 329.7 57.1 L 333.2 67.7 L 323.7 61 L 314.7 67.7 L 318.2 57.1 L 308.8 50.4 L 320.6 50.4 L 324.1 39.4 Z M 32.7 67 L 35.8 78 L 47.7 78 L 38.2 84.7 L 41.7 95.3 L 32.3 88.6 L 23.6 95.3 L 27.2 84.7 L 17.7 78 L 29.5 78 L 32.7 67 Z M 97.3 67 L 100.8 78 L 112.2 78 L 103.2 84.7 L 106.7 95.3 L 97.3 88.6 L 88.3 95.3 L 91.8 84.7 L 82.3 78 L 93.7 78 L 97.3 67 Z M 162.3 67 L 165.8 78 L 177.2 78 L 167.8 84.7 L 171.8 95.3 L 162.3 88.6 L 152.8 95.3 L 156.8 84.7 L 147.3 78 L 158.7 78 L 162.3 67 Z M 226.9 67 L 230.8 78 L 241.8 78 L 232.8 84.7 L 236.3 95.3 L 226.9 88.6 L 217.8 95.3 L 221.3 84.7 L 212 78 L 223.8 78 L 226.9 67 Z M 291.9 67 L 295.4 78 L 306.8 78 L 297.8 84.7 L 301.3 95.3 L 291.8 88.6 L 282.8 95.3 L 286.3 84.7 L 277 78 L 288.4 78 L 291.9 67 Z M 356.9 67 L 360.4 78 L 371.8 78 L 362.3 84.7 L 366.3 95.3 L 356.8 88.6 L 347.4 95.3 L 351.4 84.7 L 341.9 78 L 353.3 78 L 356.9 67 Z M 64.9 94.5 L 68.5 105.5 L 80 105.5 L 70.5 112.2 L 74.5 122.9 L 65 116.2 L 55.5 122.9 L 59.5 112.2 L 50 105.6 L 61.4 105.6 L 64.9 94.5 Z M 129.6 94.5 L 133.6 105.5 L 144.6 105.5 L 135.5 112.2 L 139 123 L 129.6 116.3 L 120.6 123 L 124.1 112.3 L 114.6 105.7 L 126.4 105.7 L 129.6 94.5 Z M 194.6 94.5 L 198.1 105.5 L 209.5 105.5 L 200.5 112.2 L 204 123 L 194.6 116.3 L 185.5 123 L 189 112.3 L 179.6 105.7 L 191 105.7 L 194.6 94.5 Z M 259.6 94.5 L 263.1 105.5 L 274.5 105.5 L 265.1 112.2 L 269 123 L 259.5 116.3 L 250.1 123 L 254.1 112.3 L 244.6 105.7 L 256 105.7 L 259.6 94.5 Z M 324.1 94.5 L 328.1 105.5 L 338.7 105.5 L 329.7 112.2 L 333.2 122.9 L 323.7 116.2 L 314.7 122.9 L 318.2 112.2 L 308.8 105.6 L 320.6 105.6 L 324.1 94.5 Z M 32.7 122.1 L 35.8 133.1 L 47.7 133.1 L 38.2 139.8 L 41.7 150.5 L 32.3 143.8 L 23.6 150.5 L 27.2 139.8 L 17.7 133.1 L 29.5 133.1 L 32.7 122.1 Z M 97.3 122.1 L 100.8 133.1 L 112.2 133.1 L 103.2 139.8 L 106.7 150.5 L 97.3 143.8 L 88.3 150.5 L 91.8 139.8 L 82.3 133.1 L 93.7 133.1 L 97.3 122.1 Z M 162.3 122.1 L 165.8 133.1 L 177.2 133.1 L 167.8 139.8 L 171.8 150.5 L 162.3 143.8 L 152.8 150.5 L 156.8 139.8 L 147.3 133.1 L 158.7 133.1 L 162.3 122.1 Z M 226.9 122.1 L 230.8 133.1 L 241.8 133.1 L 232.8 139.8 L 236.3 150.5 L 226.9 143.8 L 217.8 150.5 L 221.3 139.8 L 211.9 133.1 L 223.7 133.1 L 226.9 122.1 Z M 291.9 122.1 L 295.4 133.1 L 306.8 133.1 L 297.8 139.8 L 301.3 150.5 L 291.8 143.8 L 282.8 150.5 L 286.3 139.8 L 276.9 133.1 L 288.3 133.1 L 291.9 122.1 Z M 356.9 122.1 L 360.4 133.1 L 371.8 133.1 L 362.3 139.8 L 366.3 150.5 L 356.8 143.8 L 347.4 150.5 L 351.4 139.8 L 341.9 133.1 L 353.3 133.1 L 356.9 122.1 Z M 64.9 149.7 L 68.5 160.7 L 80 160.7 L 70.5 167.4 L 74.5 178 L 65 171.3 L 55.5 178 L 59.5 167.4 L 50 160.7 L 61.4 160.7 L 64.9 149.7 Z M 129.6 149.7 L 133.6 160.7 L 144.6 160.7 L 135.5 167.4 L 139 178 L 129.6 171.3 L 120.6 178 L 124.1 167.4 L 114.6 160.7 L 126.4 160.7 L 129.6 149.7 Z M 194.6 149.7 L 198.1 160.7 L 209.5 160.7 L 200.5 167.4 L 204 178 L 194.6 171.3 L 185.5 178 L 189 167.4 L 179.6 160.7 L 191 160.7 L 194.6 149.7 Z M 259.6 149.7 L 263.1 160.7 L 274.5 160.7 L 265.1 167.4 L 269 178 L 259.5 171.3 L 250.1 178 L 254.1 167.4 L 244.6 160.7 L 256 160.7 L 259.6 149.7 Z M 324.1 149.7 L 328.1 160.7 L 338.7 160.7 L 329.7 167.4 L 333.2 178 L 323.7 171.3 L 314.7 178 L 318.2 167.4 L 308.8 160.7 L 320.6 160.7 L 324.1 149.7 Z M 32.7 177.2 L 35.8 188.2 L 47.7 188.2 L 38.2 195 L 41.7 205.6 L 32.3 198.9 L 23.6 205.6 L 27.2 195 L 17.7 188.3 L 29.5 188.3 L 32.7 177.2 Z M 97.3 177.2 L 100.8 188.2 L 112.2 188.2 L 103.2 195 L 106.7 205.6 L 97.3 198.9 L 88.3 205.6 L 91.8 195 L 82.3 188.3 L 93.7 188.3 L 97.3 177.2 Z M 162.3 177.2 L 165.8 188.2 L 177.2 188.2 L 167.8 195 L 171.8 205.6 L 162.3 198.9 L 152.8 205.6 L 156.8 195 L 147.3 188.3 L 158.7 188.3 L 162.3 177.2 Z M 226.9 177.2 L 230.8 188.2 L 241.8 188.2 L 232.8 195 L 236.3 205.6 L 226.9 198.9 L 217.8 205.6 L 221.3 195 L 211.9 188.3 L 223.7 188.3 L 226.9 177.2 Z M 291.9 177.2 L 295.4 188.2 L 306.8 188.2 L 297.8 195 L 301.3 205.6 L 291.8 198.9 L 282.8 205.6 L 286.3 195 L 276.9 188.3 L 288.3 188.3 L 291.9 177.2 Z M 356.9 177.2 L 360.4 188.2 L 371.8 188.2 L 362.3 195 L 366.3 205.6 L 356.8 198.9 L 347.4 205.6 L 351.4 195 L 341.9 188.3 L 353.3 188.3 L 356.9 177.2 Z M 64.9 204.8 L 68.5 215.8 L 80 215.8 L 70.5 222.5 L 74.5 233.2 L 65 226.5 L 55.5 233.2 L 59.5 222.5 L 50 215.8 L 61.4 215.8 L 64.9 204.8 Z M 129.6 204.8 L 133.6 215.8 L 144.6 215.8 L 135.5 222.5 L 139 233.2 L 129.6 226.5 L 120.6 233.2 L 124.1 222.5 L 114.6 215.8 L 126.4 215.8 L 129.6 204.8 Z M 194.6 204.8 L 198.1 215.8 L 209.5 215.8 L 200.5 222.5 L 204 233.2 L 194.6 226.5 L 185.5 233.2 L 189 222.5 L 179.6 215.8 L 191 215.8 L 194.6 204.8 Z M 259.6 204.8 L 263.1 215.8 L 274.5 215.8 L 265.1 222.5 L 269 233.2 L 259.5 226.5 L 250.1 233.2 L 254.1 222.5 L 244.6 215.8 L 256 215.8 L 259.6 204.8 Z M 324.1 204.8 L 328.1 215.8 L 338.7 215.8 L 329.7 222.5 L 333.2 233.2 L 323.7 226.5 L 314.7 233.2 L 318.2 222.5 L 308.8 215.8 L 320.6 215.8 L 324.1 204.8 Z M 32.7 232.4 L 35.8 243.4 L 47.7 243.4 L 38.2 250.1 L 41.7 260.7 L 32.3 254 L 23.6 260.7 L 27.2 250.1 L 17.7 243.4 L 29.5 243.4 L 32.7 232.4 Z M 97.3 232.4 L 100.8 243.4 L 112.2 243.4 L 103.2 250.1 L 106.7 260.7 L 97.3 254 L 88.3 260.7 L 91.8 250.1 L 82.3 243.4 L 93.7 243.4 L 97.3 232.4 Z M 162.3 232.4 L 165.8 243.4 L 177.2 243.4 L 167.8 250.1 L 171.8 260.7 L 162.3 254 L 152.8 260.7 L 156.8 250.1 L 147.3 243.4 L 158.7 243.4 L 162.3 232.4 Z M 226.9 232.4 L 230.8 243.4 L 241.8 243.4 L 232.8 250.1 L 236.3 260.7 L 226.9 254 L 217.8 260.7 L 221.3 250.1 L 211.9 243.4 L 223.7 243.4 L 226.9 232.4 Z M 291.9 232.4 L 295.4 243.4 L 306.8 243.4 L 297.8 250.1 L 301.3 260.7 L 291.8 254 L 282.8 260.7 L 286.3 250.1 L 276.9 243.4 L 288.3 243.4 L 291.9 232.4 Z M 356.9 232.4 L 360.4 243.4 L 371.8 243.4 L 362.3 250.1 L 366.3 260.7 L 356.8 254 L 347.4 260.7 L 351.4 250.1 L 341.9 243.4 L 353.3 243.4 L 356.9 232.4 Z" style=""/>
    </g>
  </g>
</svg>